<?xml version="1.0" encoding="UTF-8" standalone="no"?>
<!-- Created with Inkscape (http://www.inkscape.org/) -->

<svg
   width="594mm"
   height="420mm"
   viewBox="0 0 594 420"
   version="1.1"
   id="svg1"
   inkscape:version="1.4.3 (0d15f75, 2025-12-25)"
   sodipodi:docname="drawing-21 favicon.svg"
   xmlns:inkscape="http://www.inkscape.org/namespaces/inkscape"
   xmlns:sodipodi="http://sodipodi.sourceforge.net/DTD/sodipodi-0.dtd"
   xmlns="http://www.w3.org/2000/svg"
   xmlns:svg="http://www.w3.org/2000/svg">
  <sodipodi:namedview
     id="namedview1"
     pagecolor="#ffffff"
     bordercolor="#999999"
     borderopacity="1"
     inkscape:showpageshadow="2"
     inkscape:pageopacity="0"
     inkscape:pagecheckerboard="0"
     inkscape:deskcolor="#d1d1d1"
     inkscape:document-units="mm"
     inkscape:zoom="0.34431467"
     inkscape:cx="1189.319"
     inkscape:cy="762.384"
     inkscape:window-width="1920"
     inkscape:window-height="991"
     inkscape:window-x="-9"
     inkscape:window-y="-9"
     inkscape:window-maximized="1"
     inkscape:current-layer="layer1" />
  <defs
     id="defs1">
    <inkscape:path-effect
       effect="bspline"
       id="path-effect58-0"
       is_visible="true"
       lpeversion="1.3"
       weight="33.333333"
       steps="2"
       helper_size="0"
       apply_no_weight="true"
       apply_with_weight="true"
       only_selected="false"
       uniform="false" />
    <inkscape:path-effect
       effect="bspline"
       id="path-effect255"
       is_visible="true"
       lpeversion="1.3"
       weight="33.333333"
       steps="2"
       helper_size="0"
       apply_no_weight="true"
       apply_with_weight="true"
       only_selected="false"
       uniform="false" />
  </defs>
  <g
     inkscape:label="Layer 1"
     inkscape:groupmode="layer"
     id="layer1">
    <g
       id="g43"
       style="fill:#000000;fill-opacity:1;stroke-width:0.859791"
       transform="matrix(1.1630771,0,0,1.1630771,-508.21462,-12.45909)"
       inkscape:export-filename="g43.png"
       inkscape:export-xdpi="400"
       inkscape:export-ydpi="400">
      <path
         style="fill:#000000;fill-opacity:1;fill-rule:evenodd;stroke:#1a1a1a;stroke-width:0;stroke-linecap:square;stroke-linejoin:round;stroke-miterlimit:0;paint-order:fill markers stroke"
         d="m 714.99831,165.93837 c -2.89593,-2.39719 -6.87232,-3.07404 -10.41382,-1.77263 -0.68274,3.67018 0.68279,7.41974 3.57621,9.8198 2.89588,2.3973 6.87232,3.07427 10.41386,1.77294 0.68285,-3.67029 -0.68271,-7.42 -3.57625,-9.82011 z"
         id="path17-5-9" />
      <path
         style="fill:#000000;fill-opacity:1;fill-rule:evenodd;stroke:#1a1a1a;stroke-width:0;stroke-linecap:square;stroke-linejoin:round;stroke-miterlimit:0;paint-order:fill markers stroke"
         d="m 720.8129,159.09517 c -1.77805,-1.47335 -4.42892,-1.24432 -5.92089,0.51156 -1.49197,1.75591 -1.26005,4.37374 0.51801,5.84712 1.77805,1.4735 4.42905,1.24452 5.92106,-0.51142 1.49201,-1.75597 1.26001,-4.3739 -0.51818,-5.84726 z"
         id="path16-1-8" />
      <path
         style="fill:#000000;fill-opacity:1;fill-rule:evenodd;stroke:#1a1a1a;stroke-width:0;stroke-linecap:square;stroke-linejoin:round;stroke-miterlimit:0;paint-order:fill markers stroke"
         d="m 713.44524,182.79603 c -0.6581,-3.67463 -3.26361,-6.71724 -6.82364,-7.96837 -2.91194,2.37814 -4.30647,6.11728 -3.65218,9.79251 0.65798,3.67467 3.26344,6.71739 6.82347,7.9686 2.91209,-2.37814 4.30673,-6.1174 3.65235,-9.79274 z"
         id="path15-7-9" />
      <path
         style="fill:#000000;fill-opacity:1;fill-rule:evenodd;stroke:#1a1a1a;stroke-width:0;stroke-linecap:square;stroke-linejoin:round;stroke-miterlimit:0;paint-order:fill markers stroke"
         d="m 722.35375,181.2448 c -0.40309,-2.25734 -2.58284,-3.76459 -4.86867,-3.36659 -2.28584,0.39806 -3.81212,2.55065 -3.40908,4.80798 0.40296,2.25743 2.5828,3.76481 4.86867,3.36679 2.28592,-0.39806 3.81221,-2.55078 3.40908,-4.80818 z"
         id="path14-1-7" />
      <path
         style="fill:#000000;fill-opacity:1;fill-rule:evenodd;stroke:#1a1a1a;stroke-width:0;stroke-linecap:square;stroke-linejoin:round;stroke-miterlimit:0;paint-order:fill markers stroke"
         d="m 701.28286,194.72389 c 1.88769,-3.23266 1.87219,-7.21736 -0.0406,-10.4356 -3.77861,-0.0267 -7.28069,1.95245 -9.17169,5.18318 -1.88781,3.23262 -1.87242,7.21736 0.0403,10.43567 3.77873,0.0268 7.28095,-1.95241 9.17198,-5.18325 z"
         id="path13-1-2" />
      <path
         style="fill:#000000;fill-opacity:1;fill-rule:evenodd;stroke:#1a1a1a;stroke-width:0;stroke-linecap:square;stroke-linejoin:round;stroke-miterlimit:0;paint-order:fill markers stroke"
         d="m 709.11685,199.19047 c 1.16051,-1.98508 0.47181,-4.52337 -1.5383,-5.66946 -2.01014,-1.14606 -4.58046,-0.46593 -5.74102,1.51912 -1.16067,1.98509 -0.47199,4.52351 1.53819,5.66965 2.0102,1.1461 4.58063,0.46587 5.74113,-1.51931 z"
         id="path12-5-2" />
      <path
         style="fill:#000000;fill-opacity:1;fill-rule:evenodd;stroke:#1a1a1a;stroke-width:0;stroke-linecap:square;stroke-linejoin:round;stroke-miterlimit:0;paint-order:fill markers stroke"
         d="m 684.20208,196.14077 c 3.55019,-1.2781 6.13196,-4.3404 6.76143,-8.0199 -2.87722,-2.419 -6.84818,-3.12593 -10.39965,-1.85142 -3.55027,1.278 -6.13215,4.34027 -6.76171,8.01979 2.87725,2.41914 6.84835,3.12612 10.39993,1.85153 z"
         id="path11-2-8" />
      <path
         style="fill:#000000;fill-opacity:1;fill-rule:evenodd;stroke:#1a1a1a;stroke-width:0;stroke-linecap:square;stroke-linejoin:round;stroke-miterlimit:0;paint-order:fill markers stroke"
         d="m 687.29596,204.5352 c 2.1811,-0.78399 3.30569,-3.16561 2.51185,-5.31954 -0.79388,-2.15391 -3.20556,-3.26448 -5.38668,-2.48054 -2.18122,0.78391 -3.30592,3.1656 -2.51205,5.31961 0.79391,2.15399 3.20572,3.26455 5.38688,2.48047 z"
         id="path10-7-2" />
      <path
         style="fill:#000000;fill-opacity:1;fill-rule:evenodd;stroke:#1a1a1a;stroke-width:0;stroke-linecap:square;stroke-linejoin:round;stroke-miterlimit:0;paint-order:fill markers stroke"
         d="m 670.19518,186.38371 c 3.55153,1.27449 7.52253,0.56748 10.39973,-1.85161 -0.62955,-3.67945 -3.21135,-6.74166 -6.76151,-8.01971 -3.55152,-1.27461 -7.52258,-0.5677 -10.39986,1.85134 0.62949,3.67958 3.21134,6.74192 6.76164,8.01998 z"
         id="path9-6-8" />
      <path
         style="fill:#000000;fill-opacity:1;fill-rule:evenodd;stroke:#1a1a1a;stroke-width:0;stroke-linecap:square;stroke-linejoin:round;stroke-miterlimit:0;paint-order:fill markers stroke"
         d="m 667.1013,194.77813 c 2.18111,0.78395 4.5928,-0.32662 5.38668,-2.48054 0.79383,-2.15393 -0.33075,-4.53555 -2.51186,-5.31953 -2.18115,-0.78408 -4.59296,0.32647 -5.38687,2.48047 -0.79388,2.154 0.33082,4.5357 2.51205,5.3196 z"
         id="path8-1-90" />
      <path
         style="fill:#000000;fill-opacity:1;fill-rule:evenodd;stroke:#1a1a1a;stroke-width:0;stroke-linecap:square;stroke-linejoin:round;stroke-miterlimit:0;paint-order:fill markers stroke"
         d="m 665.81616,170.01814 c 1.89105,3.23073 5.39322,5.20982 9.17187,5.18307 1.91269,-3.21824 1.92812,-7.20289 0.0404,-10.43549 -1.89097,-3.23083 -5.39311,-5.21004 -9.17179,-5.18337 -1.91283,3.21831 -1.92829,7.2031 -0.0405,10.43579 z"
         id="path7-4-7" />
      <path
         style="fill:#000000;fill-opacity:1;fill-rule:evenodd;stroke:#1a1a1a;stroke-width:0;stroke-linecap:square;stroke-linejoin:round;stroke-miterlimit:0;paint-order:fill markers stroke"
         d="m 657.98217,174.48471 c 1.16056,1.98506 3.73089,2.66519 5.74102,1.51913 2.01011,-1.1461 2.69882,-3.68438 1.5383,-5.66946 -1.1605,-1.98518 -3.73092,-2.66541 -5.74113,-1.51931 -2.01018,1.14614 -2.69886,3.68455 -1.53819,5.66964 z"
         id="path6-2-8" />
      <path
         style="fill:#000000;fill-opacity:1;fill-rule:evenodd;stroke:#1a1a1a;stroke-width:0;stroke-linecap:square;stroke-linejoin:round;stroke-miterlimit:0;paint-order:fill markers stroke"
         d="m 673.114,154.70168 c -0.65426,3.67529 0.74036,7.41445 3.65239,9.79254 3.55997,-1.25119 6.1654,-4.29381 6.82343,-7.96839 0.65439,-3.6753 -0.74014,-7.41453 -3.65214,-9.79272 -3.5601,1.25115 -6.16565,4.29386 -6.82368,7.96857 z"
         id="path5-3-1" />
      <path
         style="fill:#000000;fill-opacity:1;fill-rule:evenodd;stroke:#1a1a1a;stroke-width:0;stroke-linecap:square;stroke-linejoin:round;stroke-miterlimit:0;paint-order:fill markers stroke"
         d="m 664.20552,153.15045 c -0.40303,2.25734 1.12325,4.40993 3.40907,4.80798 2.28583,0.39801 4.46559,-1.10925 4.86867,-3.36658 0.40316,-2.2574 -1.12314,-4.41012 -3.40904,-4.80818 -2.28591,-0.39803 -4.46573,1.10935 -4.8687,3.36678 z"
         id="path4-2-5" />
      <path
         style="fill:#000000;fill-opacity:1;fill-rule:evenodd;stroke:#1a1a1a;stroke-width:0;stroke-linecap:square;stroke-linejoin:round;stroke-miterlimit:0;paint-order:fill markers stroke"
         d="m 688.67397,147.60109 c -2.89344,2.40012 -4.25892,6.14976 -3.57608,9.81997 3.54149,1.30131 7.51781,0.62439 10.41369,-1.7728 2.89354,-2.40005 4.25914,-6.14968 3.57638,-9.81994 -3.54157,-1.30144 -7.51805,-0.62452 -10.41399,1.77277 z"
         id="path3-2-86" />
      <path
         style="fill:#000000;fill-opacity:1;fill-rule:evenodd;stroke:#1a1a1a;stroke-width:0;stroke-linecap:square;stroke-linejoin:round;stroke-miterlimit:0;paint-order:fill markers stroke"
         d="m 682.85937,140.75789 c -1.77804,1.47339 -2.00997,4.09122 -0.51801,5.84712 1.49198,1.75588 4.14285,1.98492 5.92092,0.51156 1.77818,-1.47335 2.01018,-4.09128 0.51818,-5.84725 -1.49204,-1.75595 -4.14303,-1.98493 -5.92109,-0.51143 z"
         id="path2-1-1" />
      <path
         style="fill:#000000;fill-opacity:1;fill-rule:evenodd;stroke:#2a2a68;stroke-width:0;stroke-linecap:square;stroke-linejoin:round;stroke-miterlimit:0;stroke-opacity:1;paint-order:fill markers stroke"
         d="m 705.21538,152.0388 c -3.77875,0.002 -7.26541,2.00753 -9.13127,5.25253 1.86592,3.24491 5.35257,5.25044 9.13127,5.25231 3.77879,-0.002 7.26552,-2.00734 9.1315,-5.25231 -1.86594,-3.24506 -5.35267,-5.25069 -9.1315,-5.25253 z"
         id="path1-6-2" />
      <path
         style="fill:#000000;fill-opacity:1;fill-rule:evenodd;stroke:#1a1a1a;stroke-width:0;stroke-linecap:square;stroke-linejoin:round;stroke-miterlimit:0;paint-order:fill markers stroke"
         d="m 705.21538,143.10564 c -2.32109,3e-5 -4.2027,1.85818 -4.20272,4.15034 2e-5,2.29216 1.88163,4.15031 4.20272,4.15033 2.32117,9e-5 4.20289,-1.85809 4.20294,-4.15033 -5e-5,-2.29224 -1.88177,-4.15043 -4.20294,-4.15034 z"
         id="path4-5-8-4" />
    </g>
  </g>
</svg>
