<?xml version="1.0" encoding="UTF-8" standalone="no"?>
<!-- Created with Inkscape (http://www.inkscape.org/) -->

<svg
   width="64"
   height="64"
   viewBox="0 0 63.999997 63.999997"
   version="1.1"
   id="svg1"
   xmlns:inkscape="http://www.inkscape.org/namespaces/inkscape"
   xmlns:sodipodi="http://sodipodi.sourceforge.net/DTD/sodipodi-0.dtd"
   xmlns="http://www.w3.org/2000/svg"
   xmlns:svg="http://www.w3.org/2000/svg">
  <sodipodi:namedview
     id="namedview1"
     pagecolor="#ffffff"
     bordercolor="#999999"
     borderopacity="1"
     inkscape:showpageshadow="2"
     inkscape:pageopacity="0"
     inkscape:pagecheckerboard="0"
     inkscape:deskcolor="#d1d1d1"
     inkscape:document-units="mm" />
  <defs
     id="defs1" />
  <g
     inkscape:label="Layer 1"
     inkscape:groupmode="layer"
     id="layer1">
    <g
       id="g69-7-4-6-1"
       transform="matrix(0.87499998,0,0,0.87499998,364.20286,-317.59531)"
       style="stroke-width:1.14285">
      <path
         style="fill:#0c637f;fill-opacity:1;stroke:none;stroke-width:0;stroke-linecap:square;stroke-linejoin:round;stroke-miterlimit:0;paint-order:fill markers stroke"
         d="m 870.49382,164.51217 c -3.54699,-2.97645 -8.01685,-4.62995 -12.64697,-4.67839 0.85154,4.55146 3.256,8.66644 6.80311,11.64283 3.54712,2.97638 8.01711,4.62974 12.64729,4.678 -0.85171,-4.55137 -3.25628,-8.6662 -6.80343,-11.64244 z"
         transform="matrix(0.96436055,0,0,0.9528986,-1191.6956,236.63887)"
         id="path69-4-6-3-6" />
      <path
         style="fill:#0c637f;fill-opacity:1;stroke:none;stroke-width:0;stroke-linecap:square;stroke-linejoin:round;stroke-miterlimit:0;paint-order:fill markers stroke"
         d="m 877.58929,156.05611 c -2.11533,-1.77508 -5.26908,-1.49933 -7.04412,0.61591 -1.77522,2.11536 -1.49928,5.26938 0.61631,7.04446 2.11548,1.77521 5.2695,1.49927 7.04446,-0.61631 1.77487,-2.11538 1.49879,-5.2691 -0.61665,-7.04406 z"
         transform="matrix(0.96436055,0,0,0.9528986,-1191.6956,236.63887)"
         id="path68-2-0-6-8" />
      <path
         style="fill:#118ab2;fill-opacity:1;stroke:none;stroke-width:0;stroke-linecap:square;stroke-linejoin:round;stroke-miterlimit:0;paint-order:fill markers stroke"
         d="m 868.23178,183.70272 c -0.80392,-4.56005 -3.16519,-8.69988 -6.68093,-11.71317 -2.2733,4.03399 -3.07644,8.73179 -2.27238,13.29188 0.80408,4.56009 3.16552,8.69989 6.68143,11.71308 2.27311,-4.03402 3.07607,-8.73179 2.27188,-13.29179 z"
         transform="matrix(0.96436055,0,0,0.9528986,-1191.6956,236.63887)"
         id="path67-7-6-1-5" />
      <path
         style="fill:#118ab2;fill-opacity:1;stroke:none;stroke-width:0;stroke-linecap:square;stroke-linejoin:round;stroke-miterlimit:0;paint-order:fill markers stroke"
         d="m 879.10268,181.78589 c -0.47943,-2.7195 -3.0726,-4.53546 -5.79201,-4.05606 -2.71963,0.47936 -4.53561,3.07285 -4.05597,5.79252 0.47947,2.7197 3.07296,4.53568 5.79252,4.05597 2.71938,-0.47961 4.53506,-3.07296 4.05546,-5.79243 z"
         transform="matrix(0.96436055,0,0,0.9528986,-1191.6956,236.63887)"
         id="path66-7-6-5-7" />
      <path
         style="fill:#0cb0a9;fill-opacity:1;stroke:none;stroke-width:0;stroke-linecap:square;stroke-linejoin:round;stroke-miterlimit:0;paint-order:fill markers stroke"
         d="m 854.16352,196.94952 c 2.3153,-4.00995 3.16749,-8.69903 2.41119,-13.26722 -4.33445,1.62896 -7.96938,4.71144 -10.2846,8.72151 -2.31521,4.01008 -3.16725,8.69926 -2.41075,13.26748 4.33432,-1.62911 7.96909,-4.71168 10.28416,-8.72177 z"
         transform="matrix(0.96436055,0,0,0.9528986,-1191.6956,236.63887)"
         id="path65-9-1-4-6" />
      <path
         style="fill:#0cb0a9;fill-opacity:1;stroke:none;stroke-width:0;stroke-linecap:square;stroke-linejoin:round;stroke-miterlimit:0;paint-order:fill markers stroke"
         d="m 863.72322,202.46882 c 1.3808,-2.39143 0.56159,-5.44938 -1.82975,-6.83015 -2.39148,-1.38093 -5.44967,-0.56149 -6.83041,1.8302 -1.3809,2.39161 -0.56146,5.4498 1.8302,6.83042 2.39145,1.38058 5.44932,0.56105 6.82996,-1.83047 z"
         transform="matrix(0.96436055,0,0,0.9528986,-1191.6956,236.63887)"
         id="path64-3-8-2-1" />
      <path
         style="fill:#06d6a0;fill-opacity:1;stroke:none;stroke-width:0;stroke-linecap:square;stroke-linejoin:round;stroke-miterlimit:0;paint-order:fill markers stroke"
         d="m 834.87172,198.05426 c 4.35117,-1.58356 8.01807,-4.62782 10.37508,-8.6134 -4.36745,-1.53827 -9.13335,-1.51344 -13.48454,0.0703 -4.35118,1.58371 -8.01803,4.62815 -10.37491,8.61388 4.36746,1.53807 9.13329,1.51308 13.48437,-0.0707 z"
         transform="matrix(0.96436055,0,0,0.9528986,-1191.6956,236.63887)"
         id="path63-1-4-0-8" />
      <path
         style="fill:#06d6a0;fill-opacity:1;stroke:none;stroke-width:0;stroke-linecap:square;stroke-linejoin:round;stroke-miterlimit:0;paint-order:fill markers stroke"
         d="m 838.64714,208.42715 c 2.59493,-0.94439 3.933,-3.81349 2.98867,-6.40835 -0.94434,-2.59506 -3.81377,-3.9331 -6.40884,-2.98848 -2.59512,0.94445 -3.93316,3.81388 -2.98849,6.40883 0.94454,2.59478 3.81379,3.93255 6.40866,2.988 z"
         transform="matrix(0.96436055,0,0,0.9528986,-1191.6956,236.63887)"
         id="path62-9-9-9-9" />
      <path
         style="fill:#83d483;fill-opacity:1;stroke:none;stroke-width:0;stroke-linecap:square;stroke-linejoin:round;stroke-miterlimit:0;paint-order:fill markers stroke"
         d="m 819.38323,186.5 c 4.35108,1.58381 9.11691,1.60881 13.48437,0.0707 -2.35689,-3.98573 -6.02373,-7.03016 -10.37492,-8.61388 -4.35119,-1.58369 -9.11708,-1.60852 -13.48454,-0.0703 2.35701,3.98558 6.02392,7.02985 10.37509,8.6134 z"
         transform="matrix(0.96436055,0,0,0.9528986,-1191.6956,236.63887)"
         id="path61-8-6-7-2" />
      <path
         style="fill:#83d483;fill-opacity:1;stroke:none;stroke-width:0;stroke-linecap:square;stroke-linejoin:round;stroke-miterlimit:0;paint-order:fill markers stroke"
         d="m 815.60781,196.87289 c 2.59487,0.94455 5.46411,-0.39322 6.40865,-2.98799 0.94467,-2.59495 -0.39336,-5.46438 -2.98849,-6.40884 -2.59506,-0.94461 -5.46449,0.39342 -6.40883,2.98849 -0.94433,2.59485 0.39374,5.46396 2.98867,6.40834 z"
         transform="matrix(0.96436055,0,0,0.9528986,-1191.6956,236.63887)"
         id="path60-6-3-3-7" />
      <path
         style="fill:#ffd166;fill-opacity:1;stroke:none;stroke-width:0;stroke-linecap:square;stroke-linejoin:round;stroke-miterlimit:0;paint-order:fill markers stroke"
         d="m 814.94529,167.69313 c 2.31507,4.01008 5.94984,7.09265 10.28416,8.72176 0.7565,-4.56822 -0.0955,-9.2574 -2.41075,-13.26748 -2.31522,-4.01007 -5.95015,-7.09255 -10.2846,-8.72151 -0.7563,4.56819 0.0959,9.25727 2.41119,13.26723 z"
         transform="matrix(0.96436055,0,0,0.9528986,-1191.6956,236.63887)"
         id="path59-5-7-7-9" />
      <path
         style="fill:#ffd166;fill-opacity:1;stroke:none;stroke-width:0;stroke-linecap:square;stroke-linejoin:round;stroke-miterlimit:0;paint-order:fill markers stroke"
         d="m 805.38559,173.21243 c 1.38064,2.39151 4.43851,3.21104 6.82996,1.83046 2.39166,-1.38062 3.2111,-4.43881 1.8302,-6.83041 -1.38074,-2.3917 -4.43893,-3.21114 -6.83041,-1.83021 -2.39134,1.38077 -3.21055,4.43872 -1.82975,6.83016 z"
         transform="matrix(0.96436055,0,0,0.9528986,-1191.6956,236.63887)"
         id="path58-0-8-2-5" />
      <path
         style="fill:#f78c6b;fill-opacity:1;stroke:none;stroke-width:0;stroke-linecap:square;stroke-linejoin:round;stroke-miterlimit:0;paint-order:fill markers stroke"
         d="m 823.63447,150.43357 c -0.80419,4.56 -10e-4,9.25777 2.27188,13.29179 3.51591,-3.01319 5.87735,-7.15299 6.68143,-11.71308 0.80406,-4.56009 9.2e-4,-9.25789 -2.27238,-13.29188 -3.51574,3.01329 -5.87701,7.15312 -6.68093,11.71317 z"
         transform="matrix(0.96436055,0,0,0.9528986,-1191.6956,236.63887)"
         id="path57-2-8-6-4" />
      <path
         style="fill:#f78c6b;fill-opacity:1;stroke:none;stroke-width:0;stroke-linecap:square;stroke-linejoin:round;stroke-miterlimit:0;paint-order:fill markers stroke"
         d="m 812.76357,148.51674 c -0.4796,2.71947 1.33608,5.31282 4.05545,5.79243 2.71957,0.47971 5.31306,-1.33627 5.79253,-4.05597 0.47964,-2.71967 -1.33635,-5.31316 -4.05597,-5.79252 -2.71941,-0.4794 -5.31258,1.33656 -5.79201,4.05606 z"
         transform="matrix(0.96436055,0,0,0.9528986,-1191.6956,236.63887)"
         id="path56-8-2-0-3" />
      <path
         style="fill:#ef476f;fill-opacity:1;stroke:none;stroke-width:0;stroke-linecap:square;stroke-linejoin:round;stroke-miterlimit:0;paint-order:fill markers stroke"
         d="m 841.38499,142.79728 c -3.54716,2.97624 -5.95172,7.09107 -6.80344,11.64243 4.63018,-0.0482 9.10017,-1.70162 12.6473,-4.67799 3.54711,-2.9764 5.95156,-7.09137 6.80311,-11.64283 -4.63012,0.0484 -9.09999,1.70194 -12.64697,4.67839 z"
         transform="matrix(0.96436055,0,0,0.9528986,-1191.6956,236.63887)"
         id="path55-6-9-1-1" />
      <path
         style="fill:#ef476f;fill-opacity:1;stroke:none;stroke-width:0;stroke-linecap:square;stroke-linejoin:round;stroke-miterlimit:0;paint-order:fill markers stroke"
         d="m 834.28951,134.34122 c -2.11544,1.77495 -2.39152,4.92867 -0.61664,7.04406 1.77495,2.11558 4.92897,2.39152 7.04445,0.61631 2.1156,-1.77509 2.39154,-4.92911 0.61631,-7.04446 -1.77504,-2.11524 -4.92879,-2.391 -7.04412,-0.61591 z"
         transform="matrix(0.96436055,0,0,0.9528986,-1191.6956,236.63887)"
         id="path54-0-1-6-2" />
      <path
         style="fill:#073b4c;fill-opacity:1;stroke:none;stroke-width:0;stroke-linecap:square;stroke-linejoin:round;stroke-miterlimit:0;paint-order:fill markers stroke"
         d="m 859.89119,148.35735 c -4.63037,-1.3e-4 -9.11734,1.60638 -12.69535,4.54546 3.57794,2.93926 8.06491,4.54596 12.69535,4.54597 4.63044,-1e-5 9.11741,-1.60671 12.69535,-4.54597 -3.57801,-2.93908 -8.06498,-4.54559 -12.69535,-4.54546 z"
         transform="matrix(0.96436055,0,0,0.9528986,-1191.6956,236.63887)"
         id="path53-2-3-5-33" />
      <path
         style="fill:#073b4c;fill-opacity:1;stroke:none;stroke-width:0;stroke-linecap:square;stroke-linejoin:round;stroke-miterlimit:0;paint-order:fill markers stroke"
         d="m 859.89119,137.31875 c -2.76144,-9e-5 -5.0001,2.23834 -5.00021,4.99969 -1.8e-4,2.76155 2.23857,5.0003 5.00021,5.00021 2.76164,9e-5 5.00039,-2.23866 5.00021,-5.00021 -1.1e-4,-2.76135 -2.23877,-4.99978 -5.00021,-4.99969 z"
         transform="matrix(0.96436055,0,0,0.9528986,-1191.6956,236.63887)"
         id="path2-9-3-8-4-4-4-5-7-4" />
    </g>
  </g>
</svg>
