<?xml version="1.0" encoding="UTF-8" standalone="no"?>
<!-- Created with Inkscape (http://www.inkscape.org/) -->

<svg
   width="64mm"
   height="64mm"
   viewBox="0 0 63.999997 63.999997"
   version="1.1"
   id="svg1"
   inkscape:version="1.4.3 (0d15f75, 2025-12-25)"
   sodipodi:docname="Groupad Icon Logo.svg"
   xmlns:inkscape="http://www.inkscape.org/namespaces/inkscape"
   xmlns:sodipodi="http://sodipodi.sourceforge.net/DTD/sodipodi-0.dtd"
   xmlns="http://www.w3.org/2000/svg"
   xmlns:svg="http://www.w3.org/2000/svg">
  <sodipodi:namedview
     id="namedview1"
     pagecolor="#ffffff"
     bordercolor="#999999"
     borderopacity="1"
     inkscape:showpageshadow="2"
     inkscape:pageopacity="0"
     inkscape:pagecheckerboard="0"
     inkscape:deskcolor="#d1d1d1"
     inkscape:document-units="mm"
     inkscape:zoom="1.3756913"
     inkscape:cx="66.875471"
     inkscape:cy="59.242944"
     inkscape:window-width="1920"
     inkscape:window-height="991"
     inkscape:window-x="-9"
     inkscape:window-y="-9"
     inkscape:window-maximized="1"
     inkscape:current-layer="layer1"
     showborder="false" />
  <defs
     id="defs1" />
  <g
     inkscape:label="Layer 1"
     inkscape:groupmode="layer"
     id="layer1">
    <g
       id="g4-4"
       transform="matrix(0.88333331,0,0,0.88333331,329.46233,-46.873664)"
       style="stroke-width:1.13206"
       inkscape:export-filename="ga.png"
       inkscape:export-xdpi="300"
       inkscape:export-ydpi="300">
      <path
         style="fill:#1c4e8a;fill-opacity:1;stroke:none;stroke-width:0;stroke-linecap:square;stroke-linejoin:round;stroke-miterlimit:0;paint-order:fill markers stroke"
         d="m -309.3151,83.155726 c -3.42058,-2.836255 -7.73113,-4.411872 -12.19624,-4.458031 0.82119,4.33708 3.13996,8.258239 6.56065,11.094437 3.4207,2.836188 7.73139,4.411672 12.19655,4.457659 -0.82136,-4.336994 -3.14023,-8.25801 -6.56096,-11.094065 z"
         id="path69-9-1"
         inkscape:export-filename="path69-9.png"
         inkscape:export-xdpi="300"
         inkscape:export-ydpi="300" />
      <path
         style="fill:#1c4e8a;fill-opacity:1;stroke:none;stroke-width:0;stroke-linecap:square;stroke-linejoin:round;stroke-miterlimit:0;paint-order:fill markers stroke"
         d="m -302.47251,75.097959 c -2.03994,-1.691472 -5.08129,-1.42871 -6.79307,0.5869 -1.71195,2.015723 -1.44585,5.021184 0.59434,6.712656 2.04009,1.691595 5.0817,1.428652 6.7934,-0.587281 1.71162,-2.015743 1.44538,-5.020918 -0.59467,-6.712275 z"
         id="path68-9-4" />
      <path
         style="fill:#0c637f;fill-opacity:1;stroke:none;stroke-width:0;stroke-linecap:square;stroke-linejoin:round;stroke-miterlimit:0;paint-order:fill markers stroke"
         d="m -311.49652,101.44237 c -0.77527,-4.345261 -3.05239,-8.290099 -6.44283,-11.161459 -2.19228,3.843984 -2.9668,8.320511 -2.19139,12.665819 0.77542,4.3453 3.0527,8.29011 6.44331,11.16137 2.19209,-3.84401 2.96644,-8.32051 2.19091,-12.66573 z"
         id="path67-8-3" />
      <path
         style="fill:#0c637f;fill-opacity:1;stroke:none;stroke-width:0;stroke-linecap:square;stroke-linejoin:round;stroke-miterlimit:0;paint-order:fill markers stroke"
         d="m -301.01306,99.61583 c -0.46234,-2.591408 -2.96309,-4.321833 -5.58558,-3.865014 -2.62271,0.456782 -4.37397,2.928115 -3.91142,5.519684 0.46238,2.5916 2.96344,4.32204 5.58608,3.86493 2.62246,-0.45702 4.37343,-2.92822 3.91092,-5.5196 z"
         id="path66-1-9" />
      <path
         style="fill:#118ab2;fill-opacity:1;stroke:none;stroke-width:0;stroke-linecap:square;stroke-linejoin:round;stroke-miterlimit:0;paint-order:fill markers stroke"
         d="m -325.0634,114.06523 c 2.23279,-3.82107 3.0546,-8.28929 2.32526,-12.64231 -4.17997,1.55223 -7.68536,4.48952 -9.91806,8.31071 -2.2327,3.8212 -3.05438,8.28951 -2.32484,12.64256 4.17985,-1.55237 7.68508,-4.48975 9.91764,-8.31096 z"
         id="path65-8-8" />
      <path
         style="fill:#118ab2;fill-opacity:1;stroke:none;stroke-width:0;stroke-linecap:square;stroke-linejoin:round;stroke-miterlimit:0;paint-order:fill markers stroke"
         d="m -315.8444,119.32457 c 1.33159,-2.2788 0.54157,-5.19271 -1.76454,-6.50845 -2.30625,-1.31588 -5.25545,-0.53504 -6.58698,1.744 -1.33168,2.27896 -0.54145,5.19311 1.76498,6.5087 2.30622,1.31555 5.2551,0.53462 6.58654,-1.74425 z"
         id="path64-2-8" />
      <path
         style="fill:#0cb0a9;fill-opacity:1;stroke:none;stroke-width:0;stroke-linecap:square;stroke-linejoin:round;stroke-miterlimit:0;paint-order:fill markers stroke"
         d="m -343.66765,115.11794 c 4.1961,-1.50898 7.73231,-4.40985 10.00532,-8.2077 -4.2118,-1.46582 -8.80784,-1.44215 -13.00396,0.067 -4.19611,1.50911 -7.73227,4.41016 -10.00515,8.20815 4.2118,1.46563 8.80778,1.44182 13.00379,-0.0674 z"
         id="path63-6-0" />
      <path
         style="fill:#0cb0a9;fill-opacity:1;stroke:none;stroke-width:0;stroke-linecap:square;stroke-linejoin:round;stroke-miterlimit:0;paint-order:fill markers stroke"
         d="m -340.02678,125.00225 c 2.50245,-0.89991 3.79283,-3.63387 2.88215,-6.10651 -0.91068,-2.47283 -3.67785,-3.74784 -6.18043,-2.84772 -2.50263,0.89997 -3.79298,3.63424 -2.88198,6.10697 0.91088,2.47256 3.67787,3.74732 6.18026,2.84726 z"
         id="path62-6-8" />
      <path
         style="fill:#06d6a0;fill-opacity:1;stroke:none;stroke-width:0;stroke-linecap:square;stroke-linejoin:round;stroke-miterlimit:0;paint-order:fill markers stroke"
         d="m -358.60414,104.1079 c 4.19601,1.50921 8.79199,1.53303 13.0038,0.0674 -2.27289,-3.798 -5.80905,-6.699031 -10.00517,-8.208155 -4.19611,-1.509096 -8.79215,-1.532757 -13.00396,-0.06699 2.27301,3.797853 5.80924,6.698735 10.00533,8.207695 z"
         id="path61-0-7" />
      <path
         style="fill:#06d6a0;fill-opacity:1;stroke:none;stroke-width:0;stroke-linecap:square;stroke-linejoin:round;stroke-miterlimit:0;paint-order:fill markers stroke"
         d="m -362.245,113.99221 c 2.50239,0.90006 5.26937,-0.3747 6.18025,-2.84725 0.911,-2.47272 -0.37935,-5.207 -2.88199,-6.10697 -2.50257,-0.90012 -5.26973,0.37488 -6.18042,2.84772 -0.91067,2.47263 0.37971,5.2066 2.88216,6.1065 z"
         id="path60-3-7" />
      <path
         style="fill:#83d483;fill-opacity:1;stroke:none;stroke-width:0;stroke-linecap:square;stroke-linejoin:round;stroke-miterlimit:0;paint-order:fill markers stroke"
         d="m -362.88391,86.186859 c 2.23256,3.821199 5.73779,6.758576 9.91764,8.310953 0.72954,-4.353051 -0.0921,-8.821364 -2.32484,-12.642563 -2.2327,-3.821191 -5.73809,-6.758481 -9.91806,-8.310715 -0.72934,4.353022 0.0925,8.82124 2.32526,12.642325 z"
         id="path59-8-8" />
      <path
         style="fill:#83d483;fill-opacity:1;stroke:none;stroke-width:0;stroke-linecap:square;stroke-linejoin:round;stroke-miterlimit:0;paint-order:fill markers stroke"
         d="m -372.10291,91.446192 c 1.33144,2.278867 4.28032,3.059796 6.58654,1.744243 2.30643,-1.315591 3.09666,-4.229736 1.76498,-6.508688 -1.33153,-2.279048 -4.28073,-3.059891 -6.58698,-1.744005 -2.30611,1.315734 -3.09613,4.22965 -1.76454,6.50845 z"
         id="path58-01-3" />
      <path
         style="fill:#ffd166;fill-opacity:1;stroke:none;stroke-width:0;stroke-linecap:square;stroke-linejoin:round;stroke-miterlimit:0;paint-order:fill markers stroke"
         d="m -354.50441,69.740248 c -0.77553,4.345218 -9.6e-4,8.821716 2.19091,12.665728 3.39061,-2.871264 5.66789,-6.816074 6.44331,-11.161377 0.7754,-4.345304 8.9e-4,-8.821831 -2.19139,-12.665814 -3.39045,2.87136 -5.66756,6.816198 -6.44283,11.161463 z"
         id="path57-25-8" />
      <path
         style="fill:#ffd166;fill-opacity:1;stroke:none;stroke-width:0;stroke-linecap:square;stroke-linejoin:round;stroke-miterlimit:0;paint-order:fill markers stroke"
         d="m -364.98788,67.913704 c -0.4625,2.591379 1.28847,5.062578 3.91092,5.519598 2.62265,0.457115 5.1237,-1.27333 5.58609,-3.864928 0.46254,-2.59157 -1.28873,-5.062903 -3.91142,-5.519684 -2.62249,-0.45682 -5.12324,1.273606 -5.58559,3.865014 z"
         id="path56-0-3" />
      <path
         style="fill:#f78c6b;fill-opacity:1;stroke:none;stroke-width:0;stroke-linecap:square;stroke-linejoin:round;stroke-miterlimit:0;paint-order:fill markers stroke"
         d="m -337.38651,62.463638 c -3.42074,2.836055 -5.7396,6.757071 -6.56097,11.094055 4.46517,-0.04593 8.77585,-1.621471 12.19656,-4.45765 3.42069,-2.836207 5.73945,-6.757356 6.56065,-11.094436 -4.4651,0.04612 -8.77567,1.621776 -12.19624,4.458031 z"
         id="path55-9-7" />
      <path
         style="fill:#f78c6b;fill-opacity:1;stroke:none;stroke-width:0;stroke-linecap:square;stroke-linejoin:round;stroke-miterlimit:0;paint-order:fill markers stroke"
         d="m -344.22911,54.40587 c -2.04005,1.691348 -2.30629,4.696523 -0.59466,6.712275 1.71169,2.015934 4.7533,2.278876 6.79339,0.587281 2.0402,-1.69148 2.3063,-4.696942 0.59434,-6.712656 -1.71178,-2.015609 -4.75313,-2.27838 -6.79307,-0.5869 z"
         id="path54-4-1" />
      <path
         style="fill:#ef476f;fill-opacity:1;stroke:none;stroke-width:0;stroke-linecap:square;stroke-linejoin:round;stroke-miterlimit:0;paint-order:fill markers stroke"
         d="m -319.53986,67.761821 c -4.46535,-1.24e-4 -8.7924,1.530717 -12.24289,4.331363 3.45042,2.800816 7.77748,4.331839 12.24289,4.331848 4.46541,-9e-6 8.79247,-1.531032 12.2429,-4.331848 -3.4505,-2.800646 -7.77755,-4.331487 -12.2429,-4.331363 z"
         id="path53-7-0" />
      <path
         style="fill:#ef476f;fill-opacity:1;stroke:none;stroke-width:0;stroke-linecap:square;stroke-linejoin:round;stroke-miterlimit:0;paint-order:fill markers stroke"
         d="m -319.53986,57.243155 c -2.66302,-8.6e-5 -4.8219,2.132911 -4.822,4.764197 -1.8e-4,2.631477 2.15878,4.764779 4.822,4.764693 2.66322,8.6e-5 4.82218,-2.133216 4.82201,-4.764693 -1.1e-4,-2.631286 -2.15899,-4.764283 -4.82201,-4.764197 z"
         id="path2-9-3-8-4-4-8-7" />
    </g>
  </g>
</svg>
