<?xml version="1.0" encoding="UTF-8" standalone="no"?>
<!-- Created with Inkscape (http://www.inkscape.org/) -->

<svg
   width="1189mm"
   height="841mm"
   viewBox="0 0 1189 841"
   version="1.1"
   id="svg1"
   inkscape:version="1.4.3 (0d15f75, 2025-12-25)"
   sodipodi:docname="Group ad Logo.svg"
   xmlns:inkscape="http://www.inkscape.org/namespaces/inkscape"
   xmlns:sodipodi="http://sodipodi.sourceforge.net/DTD/sodipodi-0.dtd"
   xmlns="http://www.w3.org/2000/svg"
   xmlns:svg="http://www.w3.org/2000/svg">
  <sodipodi:namedview
     id="namedview1"
     pagecolor="#ffffff"
     bordercolor="#999999"
     borderopacity="1"
     inkscape:showpageshadow="2"
     inkscape:pageopacity="0"
     inkscape:pagecheckerboard="0"
     inkscape:deskcolor="#d1d1d1"
     inkscape:document-units="mm"
     inkscape:zoom="0.24319015"
     inkscape:cx="1217.1546"
     inkscape:cy="651.75337"
     inkscape:window-width="1920"
     inkscape:window-height="991"
     inkscape:window-x="-9"
     inkscape:window-y="-9"
     inkscape:window-maximized="1"
     inkscape:current-layer="layer1" />
  <defs
     id="defs1" />
  <g
     inkscape:label="Layer 1"
     inkscape:groupmode="layer"
     id="layer1">
    <path
       d="m 723.64142,337.88343 c -2.4576,0 -4.6507,0.53955 -6.58,1.61902 -1.1713,0.64308 -2.2627,1.63102 -3.2732,2.96313 v -3.54862 h -11.2996 v 47.95573 h 11.2996 v -19.12028 c 1.2173,1.2632 2.4003,2.17057 3.5486,2.72179 1.9982,0.96463 4.1342,1.44694 6.4079,1.44694 3.9045,0 7.3612,-1.29799 10.3699,-3.8933 3.7896,-3.26136 5.6844,-7.62496 5.6844,-13.09119 0,-5.37435 -1.8492,-9.69237 -5.5469,-12.95373 -3.1006,-2.73311 -6.6374,-4.09949 -10.6107,-4.09949 z m -2.1756,9.15706 a 7.75,7.75 0 0 1 7.7499,7.74992 7.75,7.75 0 0 1 -7.7499,7.74991 7.75,7.75 0 0 1 -3.9672,-1.09244 7.75,7.75 0 0 1 -3.7833,-6.65747 7.75,7.75 0 0 1 2.1312,-5.33766 7.75,7.75 0 0 1 5.6193,-2.41226 z"
       style="font-weight:bold;font-size:70.5556px;line-height:0.26;font-family:Aharoni;-inkscape-font-specification:'Aharoni Bold';letter-spacing:-3.43958px;word-spacing:0px;fill:#000000;stroke:#f9f9f9;stroke-width:0;stroke-linecap:square;stroke-linejoin:round;stroke-miterlimit:0;paint-order:fill markers stroke"
       id="path17-3-9-9-3-8"
       inkscape:export-filename="GAD.png"
       inkscape:export-xdpi="300"
       inkscape:export-ydpi="300" />
    <path
       d="m 664.90392,338.91696 v 10.64948 a 7,7 0 0 1 0.8862,-0.0563 7,7 0 0 1 7.0001,7.00009 7,7 0 0 1 -7.0001,7.00009 7,7 0 0 1 -0.2873,-0.006 7,7 0 0 1 -5.0447,-2.45877 c -0.7256,1.74708 -1.7664,3.35732 -3.1228,4.83123 -0.096,0.10452 -0.193,0.20785 -0.2909,0.30954 a 18.5,18.5 0 0 1 8.6207,-2.19728 18.5,18.5 0 0 1 0.125,-5.2e-4 18.5,18.5 0 0 1 15.4135,8.26927 c 0.2483,0.005 0.4997,0.007 0.7535,0.007 3.3762,0 6.2356,-0.40175 8.5783,-1.20561 5.6269,-1.95222 8.4403,-5.90294 8.4403,-11.85148 v -20.29121 h -11.3001 v 18.12086 c 0,1.99816 -0.4823,3.4684 -1.4469,4.41006 -1.0336,1.01056 -2.4572,1.51567 -4.2716,1.51567 -1.8374,0 -3.2732,-0.50511 -4.3067,-1.51567 -0.9646,-0.94166 -1.447,-2.4119 -1.447,-4.41006 v -18.12086 z"
       style="font-weight:bold;font-size:70.5556px;line-height:0.26;font-family:Aharoni;-inkscape-font-specification:'Aharoni Bold';letter-spacing:-3.43958px;word-spacing:0px;fill:#000000;stroke:#f9f9f9;stroke-width:0;stroke-linecap:square;stroke-linejoin:round;stroke-miterlimit:0;paint-order:fill markers stroke"
       id="path13-1-6-4-1-2" />
    <path
       id="path11-9-8-1-2-4"
       style="font-weight:bold;font-size:70.5556px;line-height:0.26;font-family:Aharoni;-inkscape-font-specification:'Aharoni Bold';letter-spacing:-3.43958px;word-spacing:0px;fill:#000000;stroke:#f9f9f9;stroke-width:0;stroke-linecap:square;stroke-linejoin:round;stroke-miterlimit:0;paint-order:fill markers stroke"
       d="m 642.83132,337.31757 c -6.0932,0 -10.8918,1.66966 -14.396,5.00952 -0.2735,0.26064 -0.5392,0.53137 -0.7969,0.81235 -2.1731,2.37684 -3.543,5.01099 -4.1098,7.90236 a 7,7 0 0 1 2.6298,5.4684 7,7 0 0 1 -0.3912,2.30787 7,7 0 0 1 -1.2666,2.21588 c 0.7248,1.76805 1.7589,3.38241 3.1032,4.84312 0.092,0.1009 0.1862,0.20043 0.2806,0.29869 0.5455,0.56756 1.1233,1.09143 1.7338,1.57096 a 20,20 0 0 1 0.3395,-0.27853 20,20 0 0 1 12.5165,-4.40128 20,20 0 0 1 12.5166,4.40128 20,20 0 0 1 0.3353,0.27492 c 0.6045,-0.47561 1.1772,-0.99438 1.7183,-1.5565 0.098,-0.10169 0.1951,-0.20502 0.2909,-0.30954 1.3564,-1.47391 2.3972,-3.08415 3.1228,-4.83123 a 7,7 0 0 1 -1.6681,-4.53564 7,7 0 0 1 2.6009,-5.44515 c -0.5782,-2.96704 -1.9414,-5.60891 -4.0902,-7.92561 -3.6059,-3.88147 -8.429,-5.82187 -14.4694,-5.82187 z m -0.3571,9.41958 a 7.75,7.75 0 0 1 7.7499,7.74992 7.75,7.75 0 0 1 -7.7499,7.75043 7.75,7.75 0 0 1 -7.7499,-7.75043 7.75,7.75 0 0 1 7.7499,-7.74992 z" />
    <path
       d="m 721.46582,347.04049 a 7.75,7.75 0 0 0 -5.6193,2.41226 7.75,7.75 0 0 0 -2.1312,5.33766 7.75,7.75 0 0 0 3.7833,6.65747 7.75,7.75 0 0 0 3.9672,1.09244 7.75,7.75 0 0 0 7.7499,-7.74991 7.75,7.75 0 0 0 -7.7499,-7.74992 z"
       style="fill:none;stroke:#f9f9f9;stroke-width:0;stroke-linecap:square;stroke-linejoin:round;stroke-miterlimit:0;paint-order:fill markers stroke"
       id="path16-8-3-9-3-5" />
    <path
       id="path16-8-3-9-3-3-5"
       style="fill:#000000;stroke:#f9f9f9;stroke-width:0;stroke-linecap:square;stroke-linejoin:round;stroke-miterlimit:0;paint-order:fill markers stroke"
       d="m 745.84242,320.05421 a 7.75,7.75 0 0 0 -5.6193,2.41226 7.75,7.75 0 0 0 -2.1311,5.33766 7.75,7.75 0 0 0 3.7832,6.65747 7.75,7.75 0 0 0 3.9672,1.09244 7.75,7.75 0 0 0 7.7499,-7.74991 7.75,7.75 0 0 0 -7.7499,-7.74992 z m 0,1.25005 a 6.4998532,6.5000713 0 0 1 6.4999,6.49987 6.4998532,6.5000713 0 0 1 -6.4999,6.49986 6.4998532,6.5000713 0 0 1 -3.3275,-0.91623 6.4998532,6.5000713 0 0 1 -3.1729,-5.58363 6.4998532,6.5000713 0 0 1 1.7875,-4.47673 6.4998532,6.5000713 0 0 1 4.7129,-2.02314 z m 3.6039,3.98994 v 1.9234 c -0.1206,-0.21449 -0.2923,-0.38666 -0.5157,-0.51625 -0.219,-0.13405 -0.4739,-0.20102 -0.7643,-0.20102 -0.496,0 -0.9118,0.17667 -1.247,0.52968 -0.3306,0.34854 -0.4955,0.80433 -0.4955,1.36736 0,0.55857 0.1671,1.01885 0.5022,1.3808 0.3352,0.35748 0.7487,0.5364 1.2403,0.5364 0.2904,0 0.5453,-0.0675 0.7643,-0.20154 0.2189,-0.13852 0.3906,-0.32143 0.5157,-0.54932 v 0.6904 h 0.771 v -4.95991 z m -6.3102,0.29456 -1.6692,4.66535 h 0.7979 l 0.3349,-0.95188 h 1.9508 l 0.3348,0.95188 h 0.8046 l -1.6691,-4.66535 z m 0.4423,0.92501 0.7643,2.19211 h -1.5353 z m 4.7486,0.65008 c 0.3039,0 0.5655,0.11196 0.7844,0.33538 0.2235,0.22343 0.3349,0.52503 0.3349,0.90486 0,0.37982 -0.1114,0.68368 -0.3349,0.91157 -0.2189,0.22343 -0.4805,0.33486 -0.7844,0.33486 -0.3039,0 -0.5672,-0.11368 -0.7907,-0.34158 -0.2189,-0.23236 -0.3286,-0.53846 -0.3286,-0.91829 0,-0.37982 0.1097,-0.67918 0.3286,-0.89813 0.2235,-0.21896 0.4868,-0.32867 0.7907,-0.32867 z" />
    <path
       d="m 620.02602,338.42965 a 11,11 0 0 0 -9.4718,5.42241 v -3.43028 -1.6459 h -3.1967 v -0.002 h -8.1551 v 31.97066 1.53634 h 4.5274 a 18.5,18.5 0 0 1 1.1348,-1.53634 18.5,18.5 0 0 1 2.4929,-2.50269 18.5,18.5 0 0 1 11.8013,-4.25297 18.5,18.5 0 0 1 8.7256,2.18695 c -0.094,-0.0983 -0.1881,-0.1978 -0.2806,-0.29869 -1.3443,-1.46072 -2.3784,-3.07508 -3.1032,-4.84312 a 7,7 0 0 1 -5.3418,2.47634 7,7 0 0 1 -6.9721,-6.37377 7,7 0 0 1 -0.028,-0.62632 7,7 0 0 1 7.0001,-7.00009 7,7 0 0 1 0.8671,0.0543 v -0.35605 z"
       style="fill:#000000;stroke:#f9f9f9;stroke-width:0;stroke-linecap:square;stroke-linejoin:round;stroke-miterlimit:0;paint-order:fill markers stroke"
       id="path6-6-4-6-3-1" />
    <path
       d="m 642.47422,363.06691 a 20,20 0 0 0 -12.5165,4.40128 20,20 0 0 0 -0.3395,0.27853 c 0.8315,0.65319 1.7232,1.22477 2.6752,1.71463 2.8555,1.46921 6.2533,2.20348 10.1932,2.20348 3.9301,0 7.3215,-0.73619 10.1736,-2.20865 0.9484,-0.48964 1.8368,-1.0606 2.6659,-1.71307 a 20,20 0 0 0 -0.3353,-0.27492 20,20 0 0 0 -12.5166,-4.40128 z"
       style="fill:#000000;fill-opacity:1;stroke:#ffd166;stroke-width:0;stroke-linecap:square;stroke-linejoin:round;stroke-miterlimit:0;stroke-opacity:1;paint-order:fill markers stroke"
       id="path10-5-8-9-4-7" />
    <path
       d="m 642.47422,346.73715 a 7.75,7.75 0 0 0 -7.7499,7.74992 7.75,7.75 0 0 0 7.7499,7.75043 7.75,7.75 0 0 0 7.7499,-7.75043 7.75,7.75 0 0 0 -7.7499,-7.74992 z"
       style="fill:none;stroke:#f9f9f9;stroke-width:0;stroke-linecap:square;stroke-linejoin:round;stroke-miterlimit:0;paint-order:fill markers stroke"
       id="path9-8-0-4-8-11-1" />
    <path
       d="m 655.32612,367.74311 c -0.8291,0.65247 -1.7175,1.22343 -2.6659,1.71307 -2.8521,1.47246 -6.2435,2.20865 -10.1736,2.20865 -3.9399,0 -7.3377,-0.73427 -10.1932,-2.20348 -0.952,-0.48986 -1.8437,-1.06144 -2.6752,-1.71463 a 20,20 0 0 0 -3.9858,4.53409 h 8.955 15.7737 8.9555 a 20,20 0 0 0 -3.9905,-4.5377 z"
       style="fill:none;stroke:#f9f9f9;stroke-width:0;stroke-linecap:square;stroke-linejoin:round;stroke-miterlimit:0;paint-order:fill markers stroke"
       id="path15-2-9-2-3-1" />
    <path
       d="m 619.15882,363.98881 a 18.5,18.5 0 0 0 -11.8013,4.25297 18.5,18.5 0 0 0 -2.4929,2.50269 18.5,18.5 0 0 0 -1.1348,1.53634 h 21.9026 a 20,20 0 0 1 3.9858,-4.53409 c -0.6105,-0.47953 -1.1883,-1.0034 -1.7338,-1.57096 a 18.5,18.5 0 0 0 -8.7256,-2.18695 z"
       style="fill:none;stroke:#f9f9f9;stroke-width:0;stroke-linecap:square;stroke-linejoin:round;stroke-miterlimit:0;paint-order:fill markers stroke"
       id="path8-8-9-5-8-5" />
    <path
       d="m 619.15882,349.51011 a 7,7 0 0 0 -7,7.00009 7,7 0 0 0 0.028,0.62632 7,7 0 0 0 6.9721,6.37377 7,7 0 0 0 5.3418,-2.47634 7,7 0 0 0 1.2666,-2.21588 7,7 0 0 0 0.3912,-2.30787 7,7 0 0 0 -2.6298,-5.4684 7,7 0 0 0 -3.5026,-1.47743 7,7 0 0 0 -0.8672,-0.0543 z"
       style="fill:none;stroke:#f9f9f9;stroke-width:0;stroke-linecap:square;stroke-linejoin:round;stroke-miterlimit:0;paint-order:fill markers stroke"
       id="path7-6-2-5-7-27" />
    <path
       d="m 665.79012,363.98881 a 18.5,18.5 0 0 0 -0.125,5.2e-4 18.5,18.5 0 0 0 -8.6207,2.19728 c -0.5411,0.56212 -1.1138,1.0809 -1.7183,1.5565 a 20,20 0 0 1 3.9905,4.5377 h 21.9025 a 18.5,18.5 0 0 0 -0.016,-0.0227 18.5,18.5 0 0 0 -15.4135,-8.26926 z"
       style="fill:none;stroke:#f9f9f9;stroke-width:0;stroke-linecap:square;stroke-linejoin:round;stroke-miterlimit:0;paint-order:fill markers stroke"
       id="path14-0-5-4-42-6" />
    <path
       d="m 665.79012,349.51011 a 7,7 0 0 0 -0.8862,0.0563 7,7 0 0 0 -3.513,1.49862 7,7 0 0 0 -2.6009,5.44514 7,7 0 0 0 1.6681,4.53564 7,7 0 0 0 5.0447,2.45877 7,7 0 0 0 0.2873,0.006 7,7 0 0 0 7.0001,-7.00009 7,7 0 0 0 -7.0001,-7.00009 z"
       style="fill:none;stroke:#f9f9f9;stroke-width:0;stroke-linecap:square;stroke-linejoin:round;stroke-miterlimit:0;paint-order:fill markers stroke"
       id="path12-2-5-9-7-1" />
    <g
       id="g34-3-1-7-42"
       transform="translate(273.93142,52.069404)"
       style="fill:#000000;stroke:#000000">
      <path
         d="m 279.63146,313.8899 a 37.5,37.5 0 0 1 16.78708,-3.9672 37.5,37.5 0 0 1 16.03417,3.60081 v -12.0313 h -3.53054 a 14.200001,14.200001 0 0 1 -12.50363,7.46931 14.200001,14.200001 0 0 1 -14.20016,-14.19965 14.200001,14.200001 0 0 1 14.20016,-14.20017 14.200001,14.200001 0 0 1 12.95942,8.39587 l 8.25169,-8.25996 a 25.449999,25.450001 0 0 0 -21.21111,-11.38587 25.449999,25.450001 0 0 0 -25.45012,25.45013 25.449999,25.450001 0 0 0 8.66304,19.12803 z"
         style="fill:#000000;stroke:#000000;stroke-width:0.0999996;stroke-linecap:square;stroke-linejoin:round;stroke-miterlimit:0;paint-order:fill markers stroke"
         id="path3-5-3-2-9-3" />
      <path
         d="m 279.63146,313.8899 a 25.449999,25.450001 0 0 0 16.78708,6.32158 25.449999,25.450001 0 0 0 16.03417,-5.68596 v -1.00201 a 37.5,37.5 0 0 0 -16.03417,-3.60081 37.5,37.5 0 0 0 -16.78708,3.9672 z"
         style="fill:#000000;stroke:#000000;stroke-width:0;stroke-linecap:square;stroke-linejoin:round;stroke-miterlimit:0;paint-order:fill markers stroke"
         id="path4-0-3-5-3-2" />
      <path
         d="m 306.15232,292.18631 -9.29608,9.3059 h 12.06593 3.53054 v 12.0313 1.00201 2.55695 l 2.34456,-2.34714 6.96081,-6.96754 v -6.27558 -4.36511 -4.73098 a 25.449999,25.450001 0 0 0 -0.0202,-0.20981 h -9.28522 -2.06964 z"
         style="fill:#000000;stroke:#000000;stroke-width:0.0999997;stroke-linecap:square;stroke-linejoin:round;stroke-miterlimit:0;paint-order:fill markers stroke"
         id="path5-9-7-0-1-2" />
    </g>
    <g
       id="g69-7-4-6-1"
       transform="matrix(0.87499998,0,0,0.87499998,832.75559,3.6028138)"
       style="stroke-width:1.14285"
       inkscape:export-filename="GAD.png"
       inkscape:export-xdpi="300"
       inkscape:export-ydpi="300">
      <path
         style="fill:#0c637f;fill-opacity:1;stroke:none;stroke-width:0;stroke-linecap:square;stroke-linejoin:round;stroke-miterlimit:0;paint-order:fill markers stroke"
         d="m 870.49382,164.51217 c -3.54699,-2.97645 -8.01685,-4.62995 -12.64697,-4.67839 0.85154,4.55146 3.256,8.66644 6.80311,11.64283 3.54712,2.97638 8.01711,4.62974 12.64729,4.678 -0.85171,-4.55137 -3.25628,-8.6662 -6.80343,-11.64244 z"
         transform="matrix(0.96436055,0,0,0.9528986,-1191.6956,236.63887)"
         id="path69-4-6-3-6" />
      <path
         style="fill:#0c637f;fill-opacity:1;stroke:none;stroke-width:0;stroke-linecap:square;stroke-linejoin:round;stroke-miterlimit:0;paint-order:fill markers stroke"
         d="m 877.58929,156.05611 c -2.11533,-1.77508 -5.26908,-1.49933 -7.04412,0.61591 -1.77522,2.11536 -1.49928,5.26938 0.61631,7.04446 2.11548,1.77521 5.2695,1.49927 7.04446,-0.61631 1.77487,-2.11538 1.49879,-5.2691 -0.61665,-7.04406 z"
         transform="matrix(0.96436055,0,0,0.9528986,-1191.6956,236.63887)"
         id="path68-2-0-6-8" />
      <path
         style="fill:#118ab2;fill-opacity:1;stroke:none;stroke-width:0;stroke-linecap:square;stroke-linejoin:round;stroke-miterlimit:0;paint-order:fill markers stroke"
         d="m 868.23178,183.70272 c -0.80392,-4.56005 -3.16519,-8.69988 -6.68093,-11.71317 -2.2733,4.03399 -3.07644,8.73179 -2.27238,13.29188 0.80408,4.56009 3.16552,8.69989 6.68143,11.71308 2.27311,-4.03402 3.07607,-8.73179 2.27188,-13.29179 z"
         transform="matrix(0.96436055,0,0,0.9528986,-1191.6956,236.63887)"
         id="path67-7-6-1-5" />
      <path
         style="fill:#118ab2;fill-opacity:1;stroke:none;stroke-width:0;stroke-linecap:square;stroke-linejoin:round;stroke-miterlimit:0;paint-order:fill markers stroke"
         d="m 879.10268,181.78589 c -0.47943,-2.7195 -3.0726,-4.53546 -5.79201,-4.05606 -2.71963,0.47936 -4.53561,3.07285 -4.05597,5.79252 0.47947,2.7197 3.07296,4.53568 5.79252,4.05597 2.71938,-0.47961 4.53506,-3.07296 4.05546,-5.79243 z"
         transform="matrix(0.96436055,0,0,0.9528986,-1191.6956,236.63887)"
         id="path66-7-6-5-7" />
      <path
         style="fill:#0cb0a9;fill-opacity:1;stroke:none;stroke-width:0;stroke-linecap:square;stroke-linejoin:round;stroke-miterlimit:0;paint-order:fill markers stroke"
         d="m 854.16352,196.94952 c 2.3153,-4.00995 3.16749,-8.69903 2.41119,-13.26722 -4.33445,1.62896 -7.96938,4.71144 -10.2846,8.72151 -2.31521,4.01008 -3.16725,8.69926 -2.41075,13.26748 4.33432,-1.62911 7.96909,-4.71168 10.28416,-8.72177 z"
         transform="matrix(0.96436055,0,0,0.9528986,-1191.6956,236.63887)"
         id="path65-9-1-4-6" />
      <path
         style="fill:#0cb0a9;fill-opacity:1;stroke:none;stroke-width:0;stroke-linecap:square;stroke-linejoin:round;stroke-miterlimit:0;paint-order:fill markers stroke"
         d="m 863.72322,202.46882 c 1.3808,-2.39143 0.56159,-5.44938 -1.82975,-6.83015 -2.39148,-1.38093 -5.44967,-0.56149 -6.83041,1.8302 -1.3809,2.39161 -0.56146,5.4498 1.8302,6.83042 2.39145,1.38058 5.44932,0.56105 6.82996,-1.83047 z"
         transform="matrix(0.96436055,0,0,0.9528986,-1191.6956,236.63887)"
         id="path64-3-8-2-1" />
      <path
         style="fill:#06d6a0;fill-opacity:1;stroke:none;stroke-width:0;stroke-linecap:square;stroke-linejoin:round;stroke-miterlimit:0;paint-order:fill markers stroke"
         d="m 834.87172,198.05426 c 4.35117,-1.58356 8.01807,-4.62782 10.37508,-8.6134 -4.36745,-1.53827 -9.13335,-1.51344 -13.48454,0.0703 -4.35118,1.58371 -8.01803,4.62815 -10.37491,8.61388 4.36746,1.53807 9.13329,1.51308 13.48437,-0.0707 z"
         transform="matrix(0.96436055,0,0,0.9528986,-1191.6956,236.63887)"
         id="path63-1-4-0-8" />
      <path
         style="fill:#06d6a0;fill-opacity:1;stroke:none;stroke-width:0;stroke-linecap:square;stroke-linejoin:round;stroke-miterlimit:0;paint-order:fill markers stroke"
         d="m 838.64714,208.42715 c 2.59493,-0.94439 3.933,-3.81349 2.98867,-6.40835 -0.94434,-2.59506 -3.81377,-3.9331 -6.40884,-2.98848 -2.59512,0.94445 -3.93316,3.81388 -2.98849,6.40883 0.94454,2.59478 3.81379,3.93255 6.40866,2.988 z"
         transform="matrix(0.96436055,0,0,0.9528986,-1191.6956,236.63887)"
         id="path62-9-9-9-9" />
      <path
         style="fill:#83d483;fill-opacity:1;stroke:none;stroke-width:0;stroke-linecap:square;stroke-linejoin:round;stroke-miterlimit:0;paint-order:fill markers stroke"
         d="m 819.38323,186.5 c 4.35108,1.58381 9.11691,1.60881 13.48437,0.0707 -2.35689,-3.98573 -6.02373,-7.03016 -10.37492,-8.61388 -4.35119,-1.58369 -9.11708,-1.60852 -13.48454,-0.0703 2.35701,3.98558 6.02392,7.02985 10.37509,8.6134 z"
         transform="matrix(0.96436055,0,0,0.9528986,-1191.6956,236.63887)"
         id="path61-8-6-7-2" />
      <path
         style="fill:#83d483;fill-opacity:1;stroke:none;stroke-width:0;stroke-linecap:square;stroke-linejoin:round;stroke-miterlimit:0;paint-order:fill markers stroke"
         d="m 815.60781,196.87289 c 2.59487,0.94455 5.46411,-0.39322 6.40865,-2.98799 0.94467,-2.59495 -0.39336,-5.46438 -2.98849,-6.40884 -2.59506,-0.94461 -5.46449,0.39342 -6.40883,2.98849 -0.94433,2.59485 0.39374,5.46396 2.98867,6.40834 z"
         transform="matrix(0.96436055,0,0,0.9528986,-1191.6956,236.63887)"
         id="path60-6-3-3-7" />
      <path
         style="fill:#ffd166;fill-opacity:1;stroke:none;stroke-width:0;stroke-linecap:square;stroke-linejoin:round;stroke-miterlimit:0;paint-order:fill markers stroke"
         d="m 814.94529,167.69313 c 2.31507,4.01008 5.94984,7.09265 10.28416,8.72176 0.7565,-4.56822 -0.0955,-9.2574 -2.41075,-13.26748 -2.31522,-4.01007 -5.95015,-7.09255 -10.2846,-8.72151 -0.7563,4.56819 0.0959,9.25727 2.41119,13.26723 z"
         transform="matrix(0.96436055,0,0,0.9528986,-1191.6956,236.63887)"
         id="path59-5-7-7-9" />
      <path
         style="fill:#ffd166;fill-opacity:1;stroke:none;stroke-width:0;stroke-linecap:square;stroke-linejoin:round;stroke-miterlimit:0;paint-order:fill markers stroke"
         d="m 805.38559,173.21243 c 1.38064,2.39151 4.43851,3.21104 6.82996,1.83046 2.39166,-1.38062 3.2111,-4.43881 1.8302,-6.83041 -1.38074,-2.3917 -4.43893,-3.21114 -6.83041,-1.83021 -2.39134,1.38077 -3.21055,4.43872 -1.82975,6.83016 z"
         transform="matrix(0.96436055,0,0,0.9528986,-1191.6956,236.63887)"
         id="path58-0-8-2-5" />
      <path
         style="fill:#f78c6b;fill-opacity:1;stroke:none;stroke-width:0;stroke-linecap:square;stroke-linejoin:round;stroke-miterlimit:0;paint-order:fill markers stroke"
         d="m 823.63447,150.43357 c -0.80419,4.56 -10e-4,9.25777 2.27188,13.29179 3.51591,-3.01319 5.87735,-7.15299 6.68143,-11.71308 0.80406,-4.56009 9.2e-4,-9.25789 -2.27238,-13.29188 -3.51574,3.01329 -5.87701,7.15312 -6.68093,11.71317 z"
         transform="matrix(0.96436055,0,0,0.9528986,-1191.6956,236.63887)"
         id="path57-2-8-6-4" />
      <path
         style="fill:#f78c6b;fill-opacity:1;stroke:none;stroke-width:0;stroke-linecap:square;stroke-linejoin:round;stroke-miterlimit:0;paint-order:fill markers stroke"
         d="m 812.76357,148.51674 c -0.4796,2.71947 1.33608,5.31282 4.05545,5.79243 2.71957,0.47971 5.31306,-1.33627 5.79253,-4.05597 0.47964,-2.71967 -1.33635,-5.31316 -4.05597,-5.79252 -2.71941,-0.4794 -5.31258,1.33656 -5.79201,4.05606 z"
         transform="matrix(0.96436055,0,0,0.9528986,-1191.6956,236.63887)"
         id="path56-8-2-0-3" />
      <path
         style="fill:#ef476f;fill-opacity:1;stroke:none;stroke-width:0;stroke-linecap:square;stroke-linejoin:round;stroke-miterlimit:0;paint-order:fill markers stroke"
         d="m 841.38499,142.79728 c -3.54716,2.97624 -5.95172,7.09107 -6.80344,11.64243 4.63018,-0.0482 9.10017,-1.70162 12.6473,-4.67799 3.54711,-2.9764 5.95156,-7.09137 6.80311,-11.64283 -4.63012,0.0484 -9.09999,1.70194 -12.64697,4.67839 z"
         transform="matrix(0.96436055,0,0,0.9528986,-1191.6956,236.63887)"
         id="path55-6-9-1-1" />
      <path
         style="fill:#ef476f;fill-opacity:1;stroke:none;stroke-width:0;stroke-linecap:square;stroke-linejoin:round;stroke-miterlimit:0;paint-order:fill markers stroke"
         d="m 834.28951,134.34122 c -2.11544,1.77495 -2.39152,4.92867 -0.61664,7.04406 1.77495,2.11558 4.92897,2.39152 7.04445,0.61631 2.1156,-1.77509 2.39154,-4.92911 0.61631,-7.04446 -1.77504,-2.11524 -4.92879,-2.391 -7.04412,-0.61591 z"
         transform="matrix(0.96436055,0,0,0.9528986,-1191.6956,236.63887)"
         id="path54-0-1-6-2" />
      <path
         style="fill:#073b4c;fill-opacity:1;stroke:none;stroke-width:0;stroke-linecap:square;stroke-linejoin:round;stroke-miterlimit:0;paint-order:fill markers stroke"
         d="m 859.89119,148.35735 c -4.63037,-1.3e-4 -9.11734,1.60638 -12.69535,4.54546 3.57794,2.93926 8.06491,4.54596 12.69535,4.54597 4.63044,-1e-5 9.11741,-1.60671 12.69535,-4.54597 -3.57801,-2.93908 -8.06498,-4.54559 -12.69535,-4.54546 z"
         transform="matrix(0.96436055,0,0,0.9528986,-1191.6956,236.63887)"
         id="path53-2-3-5-33" />
      <path
         style="fill:#073b4c;fill-opacity:1;stroke:none;stroke-width:0;stroke-linecap:square;stroke-linejoin:round;stroke-miterlimit:0;paint-order:fill markers stroke"
         d="m 859.89119,137.31875 c -2.76144,-9e-5 -5.0001,2.23834 -5.00021,4.99969 -1.8e-4,2.76155 2.23857,5.0003 5.00021,5.00021 2.76164,9e-5 5.00039,-2.23866 5.00021,-5.00021 -1.1e-4,-2.76135 -2.23877,-4.99978 -5.00021,-4.99969 z"
         transform="matrix(0.96436055,0,0,0.9528986,-1191.6956,236.63887)"
         id="path2-9-3-8-4-4-4-5-7-4" />
    </g>
  </g>
</svg>
